<?xml version="1.0" encoding="iso-8859-1"?>
<!-- Generator: Adobe Illustrator 23.0.1, SVG Export Plug-In . SVG Version: 6.00 Build 0)  -->
<svg version="1.1" xmlns="http://www.w3.org/2000/svg" xmlns:xlink="http://www.w3.org/1999/xlink" x="0px" y="0px"
	 viewBox="0 0 195.355 432" style="enable-background:new 0 0 195.355 432;" xml:space="preserve">
<g id="baseball-batter-silhouette-clip-art-5">
	<path style="stroke:#000000;stroke-width:2;stroke-miterlimit:10;" d="M182.522,96.543c-1.291,0.024-7.677-2.595-8.742-2.77
		c-3.252-0.533-18.6,6.411-22.734,5.457c0,0-16.087-17.363-32.243-36.849C97.456,36.635,78.883,12.097,64.489,1.739
		c-4.408-3.172-12.492,4.62-10.556,9.207c7.293,17.273,33.587,34.93,56.234,59.304c11.757,12.654,17.211,19.407,30.132,33.395
		c-10.428,4.616-15.974,2.092-27.292,3.957c-0.099-17.711-4.283-24.107-23.525-24.151c-17.321-0.04-18.19,11.364-19.181,20.038
		c-1.683,3.362-9.938,3.515-9.938,7.402c1.58,2.973,7.37,1.499,8.924,3.455c2.356,2.964,1.583,5.614,2.303,10.364
		c-3.631,8.455-15.288,12.252-16.506,19.048c-2.762,15.423,12.85,43.901,18.521,56.809c8.547,19.455-5.859,22.991-5.272,42.529
		c0.355,11.825,14.902,66.72-3.691,73.619c1.313,1.681,2.545,6.442-1.033,9.644c-18.725,16.754-27.251,39.131-31.459,44.06
		c-10.076,11.803-13.142,14.598-21.4,22.809c-4.055,4.032-14.365,16.756-7.389,31.026c6.333,12.955,28.127-28.865,35.41-35.986
		c16.124-15.764,50.956-42.319,58.441-42.319c1.64,0-0.679-7.747,0.639-8.656c1.99-1.372,5.953-0.152,7.867-1.448
		c3.902-11.642,6.807-59.739,16.05-68.445c-0.076,19.873,7.447,52.496,4.712,59.261c-0.286,0.709,5.331,1.818,5.442,2.515
		c0.169,1.052-4.586,3.095-4.483,4.01c-2.591,0.768,3.696,3.294,3.646,4.414c-0.75,17.077,6.667,30.33,10.556,45.294
		c1.782,6.859,0.555,12.365-0.384,19.918c-0.668,5.37-8.107,18.146-5.94,22.684c2.272,4.756,14.983,6.738,19.758,4.721
		c12.84-5.424,6.635-11.312,5.685-20.075c-1.683-15.525-3.698-27.763-1.463-42.985c2.402-16.359,4.287-38.343,4.287-38.343
		c-15.418-38.427,6.461-50.326-13.883-107.903c-1.002-2.835-2.829-4.711-3.263-7.677c-0.388-2.657,3.495-6.255,3.263-8.924
		c-1.712-19.63,8.232-27.346,19.192-41.551c6.941-8.996,10.198-7.842,13.819-16.506c2.263-5.414-1.401-11.995,2.388-17.707
		C192.329,117.654,202.866,96.159,182.522,96.543z M154.621,150.237c-2.277-4.528-4.431-5.731-4.342-10.895
		c2.932-4.003,6.977-6.601,11.817-8.057C163.475,138.746,161.427,146.21,154.621,150.237z"/>
</g>
<g id="Layer_1">
</g>
</svg>
