<?xml version="1.0" encoding="iso-8859-1"?>
<!-- Generator: Adobe Illustrator 23.0.1, SVG Export Plug-In . SVG Version: 6.00 Build 0)  -->
<svg version="1.1" xmlns="http://www.w3.org/2000/svg" xmlns:xlink="http://www.w3.org/1999/xlink" x="0px" y="0px"
	 viewBox="0 0 432 397.999" style="enable-background:new 0 0 432 397.999;" xml:space="preserve">
<g id="baseball-pitcher-silhouette-clip-art-1">
	<path style="stroke:#000000;stroke-width:2;stroke-miterlimit:10;" d="M410.747,331.24c-9.456,0.464-19.4-1.24-25.737-2.499
		c-18.595-3.696-35.15-59.439-57.567-81.567c-0.6-0.593,2.353-6.353,1.559-6.414c-7.136-0.549-6.773-5.078-10.063-5.855
		c-2.726-0.643-10.362-2.58-13.506-4.583c-8.784-5.597-32.984-24.406-80.273-38.44c-9.469-12.537-4.054-30.491-6.502-46.199
		c-2.03-13.03-17.424-36.801-3.511-47.837c8.381-6.648,29.89-6.01,40.265-5.038c10.214,0.957,35.354,8.165,40.041,18.532
		c-8.728,3.235-16.728-0.892-17.965,9.36c-0.945,7.833,2.289,19.947,7.34,25.864c13.103,15.353,35.845,13.033,43.533-5.9
		c3.148-7.751,3.25-15.752,3.273-24.163c0.03-10.605-5.127-14.589-14.124-20.148c-8.272-5.111-16.059-10.353-22.849-17.822
		c-7.245-7.969-10.855-8.022-21.444-9.239c-6.291-0.723-56.951-14.533-87.919-19.099c-2.174-1.225,1.339-7.717-1.022-13.014
		c15.637-5.982,20.594-10.915,17.528-14.694c-7.071-8.714-20.613-2.012-23.252-3.568c-2.676-4.57-2.806-9.611-7.287-12.93
		c-6.882-5.099-20.039-6.229-27.057-3.656c-23.786,8.719-18.205,31.359-17.985,32.749c2.432,15.398,16.338,22.168,8.836,28.754
		c-4.906,6.927-18.009,10.864-25.231,12.178c-16.342,2.971-28.274,22.741-44.519,29.807c-8.005,3.482-11.739,4.858-13.082,3.149
		c-3.657-1.936-12.589-12.47-14.555-27.098c-1.099-8.176,3.871-15.926,5.356-23.49c0,0-3.884-11.755-9.299-15.87
		c-1.364,0.458-2.697,0.639-3.994,0.667c-5.717-3.059-13.96-0.663-18.043,9.521c-2.121,5.289,4.661,9.461,1.39,18.277
		c-4.675,12.603,6.631,32.209,11.345,46.6c2.538,7.749,6.816,19.061,10.834,25.819c5.605,9.427,17.463,5.087,25.96,1.26
		c3.632-1.636,12.06-3.988,12.06-3.988s1.575,4.872,5.522,5.937c2.143,0.99,15.73-10.736,23.504-14.124
		c15.846-6.904,24.136,21.006,28.001,33.559c2.4,7.794,2.716,16.125,3.092,24.185c0.149,3.193-0.678,7.819,0.121,10.849
		c1.25,4.742,4.773,7.662,5.827,12.663c1.746,8.286-9.088,24.608-11.592,31.989c-3.256,9.599-6.518,21.018-10.425,30.227
		c-3.252,7.665-4.593,17.778-17.218,21.621c1.921,9.331-4.63,14.93-9.866,18.783c-14.726,10.836-30.022,14.781-46.788,20.784
		c-8.115,2.906-16.233,5.01-24.548,7.37c-10.539,2.991-13.4,6.401-15.292,16.96c-2.076,11.585-9.02,38.146,13.858,35.324
		c16.77-2.069,0.578-12.772,7.027-27.266c2.768-6.221,27.329-9.686,33.071-9.657c52.693,0.274,64.039-19.219,73.039-13.63
		c3.681-1.508,6.352-3.179,7.373-5.032c0.76-1.378,7.255-1.682,7.954-4.385c4.117-15.918,19.316-30.076,24.617-34.949
		c12.64-11.619,15.649-17.127,31.023-40.606c15.168-1.576,29.696,1.805,44.019,6.601c8.931,2.99,33.246,4.091,42.56,5.48
		c4.782,0.713,5.301,6.932,10.766,3.344c3.857,2.631,10.366,20.571,31.216,32.326c9.039,5.096,17.721,12.846,23.432,22.053
		c4.769,7.688,12.655,21.158,18.53,27.996c6.829,7.949,17.499-3.536,26.804-6.396c7.503-2.307,28.551-6.966,31.684-17.422
		C433.865,324.332,416.471,330.958,410.747,331.24z"/>
</g>
<g id="Layer_1">
</g>
</svg>
