<?xml version="1.0" encoding="iso-8859-1"?>
<!-- Generator: Adobe Illustrator 23.0.1, SVG Export Plug-In . SVG Version: 6.00 Build 0)  -->
<svg version="1.1" xmlns="http://www.w3.org/2000/svg" xmlns:xlink="http://www.w3.org/1999/xlink" x="0px" y="0px"
	 viewBox="0 0 381.137 432" style="enable-background:new 0 0 381.137 432;" xml:space="preserve">
<g id="baseball-pitcher-silhouette-clip-art-5">
	<path style="stroke:#000000;stroke-width:2;stroke-miterlimit:10;" d="M345.544,403.918
		c-22.337-23.352-27.878-73.727-33.008-89.511c2.499-4.078,2.376-14.168-0.701-16.136c-10.348-6.62-23.487-55.028-38.379-72.034
		c-7.849-8.964-21.66-15.907-17.873-26.807c2.111-6.076-3.535-7.557-3.871-14.145c-0.527-10.327-0.628-15.974,8.884-21.829
		c11.604,1.673,14.565,2.862,20.56-2.031c6.552-5.348,9.646-5.077,14.669-17.468c0.815-10.961,24.421-10.961,28.663-35.128
		c2.023-11.526,3.401-8.632-5.68-15.258c-5.61-4.093-13.165-7.307-19.254-10.124c-9.601-4.441-32.828-3.457-48.434-6.801
		c-12.628-2.707-18.006-10.071-24.908-11.1c2.49-7.571,1.481-14.579,4.509-19.047c2.543-3.752,11.531-3.469,16.168-4.881
		c1.21-9.268,1.21-9.268-13.099-14.175c-5.208-12.857-7.887-22.906-21.86-25.587c-3.867-0.742-15.815-1.468-19.355-0.031
		c-7.431,3.016-12.457,8.711-16.759,15.933c-4.144,6.956-2.271,6.496-3.215,15.23c-0.672,6.216,6.976,19.698,5.754,25.044
		c-2.752,12.031-13.199,5.923-31.335,19.194c-11.541-4.655-26.721-3.944-37.739-10.368c-11.727-6.836-16.43-24.43-31.447-25.748
		C63.859,39.884,53.43,55.457,62.919,66.863c7.169,8.618,27.882,10.079,37.932,16.18c17.79,10.801,18.614,15.433,48.566,42.847
		c15.328,32.522,14.321,57.726,0.508,88.502c-5.809,12.943-14.588,44.845-19.291,57.911c-5.033,13.983-11.933,14.333-24.875,22.131
		c-15.401,9.279-23.65,26.349-35.938,37.799c-11.951,11.136-15.573,4.33-28.535,9.414c-22.719,8.911-64.729,65.128-21.626,40.581
		c25.122-14.307,49.488-25.722,77.099-35.166c21.521-7.362,39.132-18.352,52.179-28.316c5.661-1.183,9.454-1.662,13.783-2.768
		c0.94-0.24,1.996-0.64,2.415-1.516c5.953-12.462,14.286-18.914,16.388-20.968c3.759-3.673,17.878-28.533,22.112-30.457
		c13.001-5.909,48.32,28.321,56.282,36.305c4.574,4.587,0.894,7.193,5.527,9.411c1.683,0.806,3.883,10.004,4.648,11.663
		c0.618,1.342,4.2,0.816,4.75,2.172c6.395,15.785,8.732,32.459,21.628,48.165c11.019,13.421,17.43,32.829,17.937,48.82
		c0.197,6.192,11.896,3.296,28.683,8.376c19.291,5.838,33.759,2.253,36.805-2.031C382.772,423.209,359.326,418.327,345.544,403.918z
		 M266.235,113.446c2.353-1.133,5.173-3.285,7.546-4.004c2.752-0.835,5.06,1.454,7.679,1.987c2.635,0.536,5.338,0.399,8.051,0.539
		c-3.061,4.159-9.363,9.781-14.504,11.192c-3.06,0.841-5.361-1.43-7.996-2.671c-2.624-1.236-5.16-2.205-7.938-2.721l-1.269-0.508
		C258.815,115.83,264.378,114.34,266.235,113.446z"/>
</g>
<g id="Layer_1">
</g>
</svg>
