<?xml version="1.0" encoding="iso-8859-1"?>
<!-- Generator: Adobe Illustrator 23.0.1, SVG Export Plug-In . SVG Version: 6.00 Build 0)  -->
<svg version="1.1" xmlns="http://www.w3.org/2000/svg" xmlns:xlink="http://www.w3.org/1999/xlink" x="0px" y="0px"
	 viewBox="0 0 218.193 432" style="enable-background:new 0 0 218.193 432;" xml:space="preserve">
<g id="baseball-batter-silhouette-clip-art-4">
	<path style="stroke:#000000;stroke-width:2;stroke-miterlimit:10;" d="M119.221,121.053c-0.174,0.204-1.451-4.521,0.731-5.58
		c5.211-20.444-4.186-29.487-22.446-32.494c-11.988-1.974-21.46,8.909-23.979,18.197c-0.723,1.198-8.989,1.427-8.618,5.238
		c3.568,3.126,9.454,3.197,10.667,6.852c1.816,5.473-1.551,12.478,4.998,17.622c-10.588,16.578-27.745,15.081-20.673,39.855
		c1.728,6.055,7.276,22.734,10.795,27.729c5.775,8.197,8.588,4.523,14.959,12.382c7.993,9.86,7.905,20.195,3.783,30.507
		c-21.443,20.26-35.949,47.877-43.651,64.448c-6.681,14.374-6.421,25.966-12.215,41.098c-6.501,16.979-14.917,29.034-23.361,44.619
		c-6.389,11.792-19.311,42.582,4.912,29.556c15.052-8.094,19.956-29.405,27.841-42.665c11.994-20.17,24.016-36.278,32.305-58.604
		c29.142-24.544,27.173-31.55,49.442-39.668c0.658,32.906,10.801,46.737,9.264,56.88c-0.817,5.392,6.457,1.175,11.065,7.377
		c6.351,8.549,10.923,17.625,17.707,25.818c4.763,5.752,9.797,21.563,10.994,33.473c0.806,8.021-9.084,20.008-9.337,24.311
		c-0.289,4.924,11.63,2.756,15.318,0.693c6.048-3.384,13.802-11.474,17.264-18.526c3.39-6.905-5.243-19.53-7.072-24.757
		c-5.261-15.044-4.498-31.684-10.45-45.929c-1.046-2.504,1.726-3.579,0.768-5.533c-0.888-1.811-5.513-4.533-6.292-6.019
		c-0.751-1.434,1.073-3.631,0.452-4.892c-3.617-7.347-7.294-11.965-3.17-28.226c4.44-17.51,12.057-37.03,4.553-54.915
		c-2.087-4.974-6.47-14.014-6.762-16.188c-0.444-7.508-2.318-13.5,8.145-17.929c3.381-7.991-0.808-11.921,1.69-13.831
		c0.809-0.619,3.552,0.11,5.875-3.265c3.665-5.325,15.791,0.21,19.207-2.518c5.389-4.303,7.749-6.855,11.265-13.394
		c10.679-19.858-24.361-20.78-36.962-34.304c0,0,0.465-25.202,0.949-48.255c0.76-36.237,6.838-62.601,0.821-87.387
		c-0.537-2.213-6.995-2.517-10.941-0.357c-6.758,23.813-0.972,36.106-1.399,88.711c-0.132,16.252,0.12,41.449,0.12,41.449
		c-6.362,0.992-22.437-8.299-22.437-8.299S126.501,120.107,119.221,121.053"/>
</g>
<g id="Layer_1">
</g>
</svg>
