<?xml version="1.0" encoding="iso-8859-1"?>
<!-- Generator: Adobe Illustrator 23.0.1, SVG Export Plug-In . SVG Version: 6.00 Build 0)  -->
<svg version="1.1" xmlns="http://www.w3.org/2000/svg" xmlns:xlink="http://www.w3.org/1999/xlink" x="0px" y="0px"
	 viewBox="0 0 250.998 432" style="enable-background:new 0 0 250.998 432;" xml:space="preserve">
<g id="baseball-pitcher-silhouette-clip-art-4">
	<path style="stroke:#000000;stroke-width:2;stroke-miterlimit:10;" d="M249.84,113.222c2.236-21.86-19.767-49.949-29.4-59.5
		c-8.653-16.038,9.979-26.247-3.781-45.012c-3.878-7.533-18.932-9.549-33.033-6.036c-4.038,4.027-7.264,9.825-8.622,14.271
		c-4.009,3.791-10.913,2.14-11.204,10.056c3.671-0.546,6.294-1.133,11.575,0.318c-2.099,18.771,2.853,23.827,6.168,32.434
		c-14.761,6.727-18.429,17.694-28.715,28.741c-8.698-6.178-1.546-8.441-5.486-19.911c-3.906-11.371-14.217-19.028-23.909-14.59
		c-10.866,4.976-15.104,14.067-20.556,24.726c-5.726,11.194-0.036,17.358,8.598,26.649c6.565,7.065,13.659,14.617,7.732,25.656
		c-2.916,5.43-6.38,4.522-11.581,5.959c-6.973,1.927-8.148,0.844-13.661,6.916c-14.676,16.164-18.768,38.952-33.813,55.546
		c-10.134,11.178-13.811,12.851-28.674,13.589C20.203,213.595,1,202.438,1,210.247c0.823,11.659,9.023,15.691,18.645,21.554
		c5.519,3.364,20.968,16.316,26.672,15.855c8.885-0.718,12.606-18.201,17.548-22.985c7.631-7.389,19.331-10.929,27.654-17.761
		c6.789-5.572,15.837-20.975,24.947-21.54c10.46-0.649,14.136,14.74,18.526,22.748c2.353,4.294,5.16,9.209,8.37,12.844
		c2.676,3.031,9.901,6.609,10.715,9.806c1.8,7.074-21.365,65.639-17.169,74.829c6.612,14.483-4.723,7.871,4.753,20.585
		c5.582,19.664,13.157,67.11,9.633,74.839c-4.09,8.971-19.118,15.132-27.169,18.031c-5.042,1.815-14.797,1.729-0.247,9.386
		c8.811,4.637,20.902,1.929,30.156,0.051c4.216-0.856,18.813,1.438,21.471-1.002c6.358-5.839,1.472-19.701,0.489-25.725
		c-5.928-36.308,6.034-56.628-1.2-86.923c-0.306-22.088,17.111-35.521,23.091-43.955c9.477-13.366,11.877-22.407,14.563-26.013
		c3.541-4.754,9.948-8.201,13.466-13.809c5.533-8.82,7.195-18.307,6.144-28.868c-0.45-4.522-3.18-8.845-3.729-12.796
		c-0.761-5.483,0.536-10.232,1.756-16.101C234.373,152.664,247.596,135.165,249.84,113.222z"/>
</g>
<g id="Layer_1">
</g>
</svg>
