<?xml version="1.0" encoding="iso-8859-1"?>
<!-- Generator: Adobe Illustrator 23.0.1, SVG Export Plug-In . SVG Version: 6.00 Build 0)  -->
<svg version="1.1" xmlns="http://www.w3.org/2000/svg" xmlns:xlink="http://www.w3.org/1999/xlink" x="0px" y="0px"
	 viewBox="0 0 380.876 432" style="enable-background:new 0 0 380.876 432;" xml:space="preserve">
<g id="baseball-batter-silhouette-clip-art-3">
	<path style="stroke:#000000;stroke-width:2;stroke-miterlimit:10;" d="M379.256,174.071c-12.271-11.248-56.86-18.202-68.215-20.886
		c-32.765-7.743-69.353-18.762-77.757-21.168c-3.451-4.602-10.582-9.941-10.582-9.941s-24.304-6.049-26.725-7.474
		c-22.513-31.541-57.736-66.128-57.736-66.128s-31.958-14.345-48.117-10.15c1.734-2.452,4.765-8.131,2.556-13.549
		c-3.195-6.647-16.233-5.113-16.233-5.113C67.731,14.817,63.893,1.092,50.244,1.001C21.81,0.813,4.229,20.686,16.751,40.418
		C13.454,48.422,5.189,55.165,2.056,66.062c-4.026,14.003,4.483,29.751,8.436,42.181c6.315,19.856-1.74,23.342,11.695,40.519
		c14.966,19.135,40.04,12.432,37.005,37.324c-3.835,31.444,35.26,79.814,29.143,85.64c-1.561,1.487,8.478,0.973,9.459,2.812
		c1.588,2.979-4.611,7.455-3.323,8.181c3.008,1.696,5.493-1.715,7.23,0.797c-27.993,25.692-20.651,53.655-44.426,82.414
		c-7.913,9.572-14.254,9.638-9.587,23.775c1.589,4.812,22.809,35.186,26.028,37.396c13.852,9.514,22.288,0.567,11.168-15.539
		c-5.391-20.922-9.995-26.336,1.917-46.399c11.916-20.07,31.932-32.409,44.236-52.109c1.578-2.526,4.461,1.403,5.614-1.193
		c0.708-1.594-0.267-9.732,0.105-11.427c4.011-0.355,8.214-3.558,8.214-3.558s2.921-12.545,3.44-25.663
		c1.469-12.408,1.892-23.736,3.02-36.044c0.798,12.914,34.658,26.264,42.807,39.451c3.767,22.286,32.527,59.482,38.511,97.986
		c3.379,21.742-2.71,22.007,23.038,25.767c9.563,1.396,54.764,8.203,44.219-3.685c-2.32-2.616-31.515-15.019-40.264-24.542
		c-5.541-6.032-5.752-44.865-16.658-91.258c-1.908-8.118,0.42-15.874,1.705-21.842c-5.374-6.711-3.896-4.456-5.568-11.71
		c-29.517-20.313-54.823-57.1-81.042-82.406c13.349-2.907,19.884-2.666,36.209-9.894c13.585-0.186,32.183-9.134,32.183-9.134
		s10.79,2.17,17.954,4.14c9.34,2.568,44.369,14.814,53.945,17.59c17.639,5.113,49.595,22.497,74.392,24.286
		C379.34,190.388,380.933,175.608,379.256,174.071z M144.321,128.056c-7.454-5.655-12.782-25.309-25.564-38.602
		c3.583-2.049,2.923-3.98,7.158-2.045c11.171,5.104,25.564,8.181,43.971,26.076c0.306,8.783,6.158,11.775,10.993,19.389
		C157.614,137.986,158.637,130.101,144.321,128.056z"/>
</g>
<g id="Layer_1">
</g>
</svg>
