<?xml version="1.0" encoding="iso-8859-1"?>
<!-- Generator: Adobe Illustrator 23.0.1, SVG Export Plug-In . SVG Version: 6.00 Build 0)  -->
<svg version="1.1" xmlns="http://www.w3.org/2000/svg" xmlns:xlink="http://www.w3.org/1999/xlink" x="0px" y="0px"
	 viewBox="0 0 240.332 432" style="enable-background:new 0 0 240.332 432;" xml:space="preserve">
<g id="running-baseball-player-silhouette-clip-art-3">
	<path style="stroke:#000000;stroke-width:2;stroke-miterlimit:10;" d="M239.245,168.365c-1.25-6.731-2.472-11.127-7.185-18.573
		c-3.737-5.904-6.154-12.577-6.764-19.538c-0.842-9.6-0.508-16.992-3.886-25.748c-1.16-3.008-3.988-8.419-6.72-10.525
		c-12.459-9.602-15.72-18.308-28.418-27.932c-6.914-5.24-20.684-10.019-28.711-11.948c-6.42-1.543-18.996,0.068-25.21-1.896
		c6.255-11.771,1.997-16.659-1.214-25.26c-0.729-12.387-6.801-22.588-19.238-25.257c-17.841-3.828-40.026,8.498-35,33.083
		c-6.304,3.794-5.026,6.261,2.017,8.933c1.24,1.909,2.129,4.894,1.457,7.772c-17.974,1.457-18.467,3.883-35.219,19.431
		C32.79,82.383,20.226,91.667,20.226,91.667c-0.34,1.866,1.861,3.657,2.097,6.443c-3.001,9.559-15.275,22.987-17.488,28.418
		c-2.66,6.527-4.357,17.974-3.69,20.892c5.248,7.138,33.425,11.423,44.414,11.979c-5.218,23.458-2.871,42.071-8.42,64.77
		c4.858,14.249,2.032,16.596,4.858,21.698c2.915,5.263,12.839,29.614,20.186,50.171c3.253,9.102,6.258,18.511,8.039,27.985
		c0.805,4.284,0.545,8.631,1.921,12.824c2.09,6.369,6.04,9.953,9.593,14.717c7.208,9.667-2.614,40.756,23.416,35.632
		c15.056-2.964,3.551-24.44,3.64-33.082c4.615-4.858,8.258-5.101,6.194-13.237c5.755-6.464,0.046-7.108-2.55-13.237
		c-2.214-5.227-3.705-13.894-4.615-17.366c-2.547-9.718-5.956-19.1-8.377-28.758c6.221,5.533,15.349,27.846,22.105,28.263
		c-0.532,9.603,4.88,3.769,8.123,7.876c2.488,3.151,4.082,5.474,6.08,9.014c4.97,8.803,10.605,13.738,18.917,18.729
		c14.811,8.893,23.889,28.252,31.117,44.422c3.074,6.876,5.456,15.77,4.854,23.587c-0.522,6.778-6.474,14.142-1.454,15.599
		c12.164,3.531,38.214,2.753,36.757-5.344c-3.122-14.139,2.198-22.097-8.852-31.36c-29.039-24.342-20.295-47.659-35.382-70.055
		c-3.472-5.154-10.011-10.475-10.447-15.73c-0.514-6.202-12.172-2.315-7.919-11.327c-2.316,0.319-4.566-1.298-6.658-1.243
		c2.859-5.507-2.283-7.434-2.984-12.459c-0.612-4.392,0.947-7.601,1.993-11.633c2.518-9.706,2.669-17.87,7.421-26.578
		c11.417-20.92,1.512-31.313-8.42-48.231c-4.569-7.782-9.861-12.023-5.093-22.368c2.218-4.811,5.126-7.352,6.065-12.633
		c0.725-4.081-0.614-8.526-0.047-12.623c1.175-8.488,0.101-17.743,2.476-25.992c2.324-8.071,8.116-15.105,10.186-23.266
		c6.164,4.952,15.462,7.034,23.576,12.094c4.609,5.566,4.251,10.935,8.744,17.002c5.485,7.407,7.877,9.78,8.015,18.945
		c0.058,3.815-4.321,9.46-1.943,14.087c1.117,2.173,4.707,10.762,7.772,10.93c-0.078-1.488-1.191-5.775-1.31-7.231
		c3.58,2.044,5.784,6.967,6.168,11.765c-1.943,4.372,0,5.02,1.943,10.687c5.176,2.098,9.529-6.768,16.569-13.508
		C239.036,171.763,239.553,170.026,239.245,168.365z M37.261,134.323c1.639-2.027,4.56-5.849,4.797-9.213
		c3.546,1.267,3.567,6.454,3.825,9.675l1.943,2.915C44.244,136.971,40.216,135.102,37.261,134.323z"/>
</g>
<g id="Layer_1">
</g>
</svg>
