<?xml version="1.0" encoding="iso-8859-1"?>
<!-- Generator: Adobe Illustrator 23.0.1, SVG Export Plug-In . SVG Version: 6.00 Build 0)  -->
<svg version="1.1" xmlns="http://www.w3.org/2000/svg" xmlns:xlink="http://www.w3.org/1999/xlink" x="0px" y="0px"
	 viewBox="0 0 373.468 432" style="enable-background:new 0 0 373.468 432;" xml:space="preserve">
<g id="running-baseball-player-silhouette-clip-art-5">
	<path style="stroke:#000000;stroke-width:2;stroke-miterlimit:10;" d="M352.254,343.465c-13.116-19.04-8.815-24.822-37.436-22.371
		c-27.728,2.374-49.577-27.39-77.447-33.243c-9.14-18.042-33.01-41.344-41.486-48.788c5.119-35.472-16.455-59.26-21.674-66.568
		c0.331-12.264,0.632-59.161,2.204-71.45c12.295-8.583,23.608-7.776,33.637-20.066c11.922,8.718,26.063,13.85,35.493,22.386
		c11.426,10.344,11.913,24.386,17.862,22.734c4.461-1.637,9.308-1.184,12.295-3.48c6.512-13.044,7.175-19.641-4.585-26.154
		c-11.91-6.596-18.249-10.458-29.052-19.778c-13.646-11.772-18.945-25.208-27.374-25.054c-13.433-0.545-23.894-2.088-38.741-1.16
		c-6.13-1.13-28.59-3.028-41.988-7.191c4.003-28.024-8.371-39.276-27.142-41.988c-13.127-1.897-26.736,5.394-26.736,21.4
		c-5.578,5.479-21.632,7.075-17.108,13.165c2.784,3.828,8.449,0.1,14.499,3.19c0.348,8.525,4.696,13.306,2.436,17.92
		C60.423,68.8,36.413,96.812,17.623,107.773c-0.527,3.306,3.781,6.46,6.263,17.572c-1.218,7.655-4.115,16.511,2.9,20.008
		c20.24,10.091,33.967-4.277,46.149-8.323c-1.377,23.285,19.794,34.601,15.326,43.815c14.981,6.887,10.877,29.458,7.655,35.153
		c-5.468,8.463-15.962,17.818-23.814,24.982c-7.522,6.864-21.906,27.776-31.166,32.424c-2.41,1.21-6.737,5.783-5.915,8.351
		c1.447,4.523,1.662,5.816-2.784,10.439c-2.683,2.791,6.99,5.207,8.003,13.571c2.265,18.704,17.398,64.722-6.94,90.109
		c-8.96,9.346-20.696,15.671-32.189,16.202c-2.273,14.682,30.573,12.691,40.149,15.098c8.049,2.022,13.033,6.822,19.486,1.144
		c6.316-5.557,4.198-17.335,4.248-24.843c0.179-27.406,34.621-83.329,22.326-111.689c12.046-3.84,25.895-14.056,36.818-20.779
		c17.039-10.488,17.91-11.644,32.013,2.479c8.954,8.967,60.187,44.851,64.542,47.966c9.836,7.035,65.97,17.664,77.502,23.568
		c11.55,5.913,20.557,8.697,31.787,15.61c15.165,9.335,38.045,20.646,41.756,8.351C376.148,348.8,359.39,353.824,352.254,343.465z"
		/>
</g>
<g id="Layer_1">
</g>
</svg>
