<?xml version="1.0" encoding="iso-8859-1"?>
<!-- Generator: Adobe Illustrator 23.0.1, SVG Export Plug-In . SVG Version: 6.00 Build 0)  -->
<svg version="1.1" xmlns="http://www.w3.org/2000/svg" xmlns:xlink="http://www.w3.org/1999/xlink" x="0px" y="0px"
	 viewBox="0 0 432.641 155.481" style="enable-background:new 0 0 432.641 155.481;" xml:space="preserve">
<g id="sliding-baseball-player-silhouette-clip-art-1">
	<path style="stroke:#000000;stroke-width:2;stroke-miterlimit:10;" d="M262.634,109.804c14.997-4.485,35.92-12.349,48.524-19.472
		c7.485,6.457,32.99,26.239,41.511,32.058c8.781,5.996,23.584,12.442,33.228,18.587c2.821,4.99,11.296,5.811,20.498,6.577
		c10.793,0.898,19.175,3.324,24.606-0.976c-6.045-4.504-22.569-3.496-32.055-11.596c-12.95-11.057-10.712-15.144-31.946-30.282
		c-14.54-20.586-24.566-30.113-29.42-37.978c-6.074-9.84-18.621-13.352-19.017-25.822c15.465-15.645,16.526-28.022-0.051-36.043
		c-12.801-6.194-19.523-4.601-26.854,2.448c-2.463,0.863-5.006,1.341-7.884,0.851c-3.356,1.879,2.47,6.163,1.184,7.843
		c-7.032,1.621-27.675-4.738-34.23-4.203c-9.859,0.804-14.473,5.268-23.373,10.351c-6.716,3.836-17.382,6.426-21.998,12.803
		c-5.425,7.495,0.621,9.865,6.338,15.291c-4.355,7.934-8.422,13.763-15.877,15.756c-10.512,2.809-25.321-0.151-35.965,0.558
		c-17.992,1.198-37.389,6.065-55.675,4.385c-1.066,1.829-6.356,3.098-7.976,4.565c-24.975,22.617-38.439,47.232-67.965,53.106
		c-5.19,1.032-31.137-5.898-26.736,10.003c1.36,4.915,23.732,6.628,27.869,7.507c8.44,1.794,30.699,7.805,31.048-9.244
		c29.764-18.723,42.677-16.375,54.478-31.148c6.194-5.503,8.954,2.325,7.691-3.674c3.392-0.467,10.944,4.09,14.537,4.837
		c7.896,1.643,21.125,1.938,28.983,3.468c-11.043,5.524-30.206,16.935-43.023,16.629c-7.45-0.178-8.682-5.16-17.628-2.176
		c-6.991,2.332-11.504,6.539-18.713,8.746c-6.232,1.907-19.614-0.869-19.524,8.437c0.092,9.479,10.91,11.671,17.527,12.442
		c2.796,0.326,8.532-1.219,15.682-2.221c7.099-0.995,13.473-2.567,19.858-2.783c12.488-0.422,20.245-4.517,33.679-5.563
		c13.314-1.037,27.472,0.647,40.835,0.947c14.333,0.321,21.526,0.432,33.08-8.264C241.813,126.065,246.229,114.71,262.634,109.804z"
		/>
</g>
<g id="Layer_1">
</g>
</svg>
