<?xml version="1.0" encoding="iso-8859-1"?>
<!-- Generator: Adobe Illustrator 23.0.1, SVG Export Plug-In . SVG Version: 6.00 Build 0)  -->
<svg version="1.1" xmlns="http://www.w3.org/2000/svg" xmlns:xlink="http://www.w3.org/1999/xlink" x="0px" y="0px"
	 viewBox="0 0 432 412.321" style="enable-background:new 0 0 432 412.321;" xml:space="preserve">
<g id="sliding-baseball-player-silhouette-clip-art-3">
	<path style="stroke:#000000;stroke-width:2;stroke-miterlimit:10;" d="M387.096,298.831c5.02-15.281,4.84-25.068-2.265-36.577
		c-3.563-5.771-20.071-20.224-29.089-25.215c-20.908-11.574-46.902-8.794-58.735-28.766c-10.944-18.471-1.187-46.271-11.927-65.383
		c-6.336-11.275-16.812-33.624-41.469-40.909c-2.88-5.379,0.502-9.323,1.964-14.809c14.262-2.21,28.017-9.288,22.974-22.317
		c-5.102-13.18-20.64-7.109-29.421-18.913c-7.846-31.382-23.828-43.03-55.988-44.884c-22.493-1.297-48.17,19.46-53.894,40.408
		c-7.116,26.043-0.832,47.662-0.832,47.662c-18.982,18.63-63.377,47.665-82.339,73.089c-5.866,7.866-6.275,35.819-14.859,56.274
		C22.81,238.52-2.965,276.068,1.52,296.999c5.044,23.537,16.812,49.915,24.657,67.248c12.784,28.243-2.891,36.967,10.733,40.191
		c14.835,2.047,18.198,6.773,32.418,6.883c6.857,0.053,10.107-4.338,15.971-6.024c6.518-1.874,15.37-1.166,17.037-3.397
		c-12.579-19.042-23.641-2.88-34.269-23.923c-9.399-18.609-20.942-54.792-19.135-76.271c8.94-2.67,11.477-12.211,14.932-7.368
		c7.075,9.916,5.464,39.088,19.754,52.117c15.986,14.575,26.438,14.098,48.038,15.052c40.117,1.773,77.243,9.465,118.688,9.465
		c42.96,0,83.997-4.694,123.228-19.624c15.876-6.042,55.157-10.64,57.212-27.17C433.868,299.38,403.151,306.03,387.096,298.831z"/>
</g>
<g id="Layer_1">
</g>
</svg>
