<?xml version="1.0" encoding="iso-8859-1"?>
<!-- Generator: Adobe Illustrator 23.0.1, SVG Export Plug-In . SVG Version: 6.00 Build 0)  -->
<svg version="1.1" xmlns="http://www.w3.org/2000/svg" xmlns:xlink="http://www.w3.org/1999/xlink" x="0px" y="0px"
	 viewBox="0 0 218.541 432" style="enable-background:new 0 0 218.541 432;" xml:space="preserve">
<g id="sliding-baseball-player-silhouette-clip-art-5">
	<path style="stroke:#000000;stroke-width:2;stroke-miterlimit:10;" d="M206.352,267.247c-16.032-25.226-3.746-34.619-35.96-82.58
		c4.695-9.649,6.614-10.01,12.865-17.908c0,0,2.812-12.135,6.593-21.408c2.863-7.023,7.469-10.97,13.162-18.029
		c5.049-6.26,2.62-54.499,4.984-69.21c2.286-14.224,10.949-33.552,3.288-46.185c0,0-15.536-14.608-21.185-10.045
		c-2.898,2.341,1.065,26.678,0.98,30.564c-0.617,28.406-13.894,37.669-14.781,65.187c-5.13,10.131-6.007,10.31-14.534,16.749
		c-14.151,10.687-33.272,22.654-46.023,34.262c10.704-12.762,0.609-43.871-14.615-48.578c-12.335-3.814-26.228-2.27-35.923,4.335
		c-7.823,5.33-9.323,10.48-12.244,25.718c-2.837,0.805-10.62,7.257-5.474,8.287c2.196,1,7.272,0.265,7.533,3.858
		c0.823,11.321,2.391,26.97,19.108,26.865c5.037,15.688-27.652,26.457-30.635,46.872c-3.188,21.825-10.183,55.448-22.768,75.904
		c11.922,6.474,18.914,10.27,19.68,17.502c-2.22,0.117-1.853,18.526-20.069,31.185c-9.092,6.318-16.587,17.211-16.767,28.428
		c-0.031,1.912,10.459,6.84,6.45,11.814C5.204,386.802,1,390.713,1,395.568c6.032,16.852,22.091,32.967,37.802,34.666
		c15.921,1.722,33.003,0,49.03,0c27.077,0,39.848,0.766,67.842-3.705c5.433-0.003,16.51,3.718,22.003,3.712
		c17.845-0.021,30.757,0.302,34.397-6.593c6.862-20.584-10.292-27.994-14.035-67.15c-1.582-16.544,13.632-23.41,18.358-38.859
		C219.104,293.556,217.482,277.912,206.352,267.247z M146.943,385.623c-5.734-0.373-14.749,10.638-22.975,12.081
		c-10.507,1.844-40.882-0.85-50.577-6.625c18.506-3.047,44.819-7.02,57.479-14.055c16.673-1.235,19.415-8.86,32.626-9.366
		c11.527,20.79,4.117,24.083,9.669,32.765C160.751,401.289,157.824,386.332,146.943,385.623z"/>
</g>
<g id="Layer_1">
</g>
</svg>
