<?xml version="1.0" encoding="iso-8859-1"?>
<!-- Generator: Adobe Illustrator 23.0.1, SVG Export Plug-In . SVG Version: 6.00 Build 0)  -->
<svg version="1.1" xmlns="http://www.w3.org/2000/svg" xmlns:xlink="http://www.w3.org/1999/xlink" x="0px" y="0px"
	 viewBox="0 0 432 314.268" style="enable-background:new 0 0 432 314.268;" xml:space="preserve">
<g id="sliding-baseball-player-silhouette-clip-art-2">
	<path style="stroke:#000000;stroke-width:2;stroke-miterlimit:10;" d="M428.092,174.263c-5.084-11.515-20.585-48.913-26.544-60.671
		c-13.75-27.132-29.644-31.146-45.03-56.405c8.76-21.902,5.72-36.604-2.491-45.143C343.47,1.064,324.169-2.427,310.606,4.76
		c-8.258,4.376-14.266,14.41-15.233,24.205c-9.018,6.036-15.369,6.727-12.531,9.725c1.642,1.734,3.802,0.852,13.748,1.997
		c-1.455,12.764,5.298,6.614,0.647,12.759c-8.076,10.67-27.124,10.496-31.466,19.755c-5.021,10.704-23.773,29.987-24.384,37.398
		c-0.738,8.948-0.733,8.169,3.905,17.058c9.379,17.976,16.618,33.237,13.913,35.169c-8.153,5.824-17.504,15.996-33.983,21.91
		c-14.203,5.097-28.541,14.609-41.949,21.995c-11.739,6.466-18.56,17.143-32.706,10.665c-0.465,1.934-6.825,6.781-7.055,8.778
		c-25.02,8.867-57.144,28.423-73.761,40.146C59.605,273.48-3.17,284.356,1.22,302.537c4.543,18.818,34.296,7.06,40.038,7.54
		c17.912,1.498,23.972-3.997,37.93-13.42c23.146-15.627,52.402-12.228,75.778-22.644c1.334,0.807,2.667,1.615,4.001,2.422
		c9.485-7.338,20.201-9.308,32.593-8.751c19.341,0.869,18.063,11.538,30.627,26.224c4.593,5.368,21.865,5.364,27.332,6.232
		c16.726,2.654,36.533-20.946,53.202-29.418c22.932-11.656,37.65-11.432,49.769-35.55c9.036-17.982-1.191-71.304,13.983-83.186
		c4.498,15.288,26.416,22.042,31.284,45.504c-3.09,17.42-0.178,58.172-0.948,72.995c-1.057,20.36-20.785,10.148-23.457,27.205
		c13.065-1.084,18.854,7.244,33.787,4.126c31.382-6.553,13.212-9.4,11.43-26.591c-2.8-27.018,8.97-45.042,9.444-69.742
		C428.301,190.407,434.536,188.859,428.092,174.263z"/>
</g>
<g id="Layer_1">
</g>
</svg>
