<?xml version="1.0" encoding="iso-8859-1"?>
<!-- Generator: Adobe Illustrator 23.0.1, SVG Export Plug-In . SVG Version: 6.00 Build 0)  -->
<svg version="1.1" xmlns="http://www.w3.org/2000/svg" xmlns:xlink="http://www.w3.org/1999/xlink" x="0px" y="0px"
	 viewBox="0 0 432 381.458" style="enable-background:new 0 0 432 381.458;" xml:space="preserve">
<g id="sliding-baseball-player-silhouette-clip-art-4">
	<path style="stroke:#000000;stroke-width:2;stroke-miterlimit:10;" d="M427.012,279.456c-7.628-3.445-23.618-7.224-31.44-10.495
		c-39.503-16.519-51.487-41.36-71.493-49.443c-10.115-4.531-16.056-13.189-20.438-18.006c-3.343-3.674,3.774-12.122,0.499-15.479
		c-12.712-13.03-35.427-25.548-46.686-37.698c-15.13-16.326-22.381-21.558-40.383-32.953c-10.291-6.514-22.284-15.999-29.274-16.499
		c1.001-5.473-0.007-6.958,1.001-17.207c3.349-3.697,16.375-8.679,13.629-15.919c-2.269-4.303-6.149-2.824-11.382-5.801
		c-5.742-25.965-21.355-33.564-42.895-29.008c-33.306,7.044-31.26,31.79-30.306,59.767c3.858,2.383,3.858,2.383,4.258,5.459
		c-18.188-5.261-33.417,5.475-72.108,9.964c-0.99-20.369-8.673-40.361-7.745-60.027c0.384-8.14,13.787-22.372,8.957-25.103
		c-7.68-4.343-4.729-15.019-18.252-19.906c-7.015,4.262-17.69,6.561-16.975,15.231c0.895,10.846,4.845,19.215,6.297,29.778
		c1.231,8.956-0.635,19.448-1.498,28.324c-1.431,14.713-6.349,48.837-1.997,51.43c5.134,8.182,11.295,13.138,17.975,17.227
		c1.296,0.793,0.478,6.023,1.748,6.741c12.558,7.098,25.818,6.105,33.205,7.49c7.964,19.51-12.733,39.696-2.394,45.687
		c8.276,11.28,40.162,21.281,41.341,37.45c0.673,9.231-11.885,27.737-13.856,36.7c-1.997,9.079-4.637,13.793-4.119,23.218
		c0.469,8.552,7.265,28.018,7.989,31.207c5.492,24.217-14.138,5.291-24.966,8.988c-9.322,3.183-12.547,7.152-22.969,9.238
		c-12.03,2.407-20.472-2.746-37.449,3.745c-3.067,1.173-6.225,2.523-9.255,4.149c-7.521,4.036-6.362,15.203,1.837,17.575
		c37.445,10.836,77.999,0.563,118.765,4.24c23.993,2.164,44.708,0.05,69.35-0.999c31.744-1.351,49.987-13.981,65.787-25.071
		c3.673-6.886,3.513-20.51,0.677-25.36c-3.965-6.782-12.704-10.182-16.38-17.579c9.141-8.602,16.169-18.478,15.506-28.108
		c-1.753-25.471-20.222-26.589-55.953-65.667c3.059-8.126,4.336-16.952,4.201-25.855c21.753,11.45,55.671,22.734,75.345,37.596
		c16.387,12.379,14.807,12.137,32.02,19.878c13.104,5.893,42.114,16.829,52.864,27.058c9.819,9.343,11.84,8.467,25.465,10.985
		C408.833,288.857,442.491,286.447,427.012,279.456z"/>
</g>
<g id="Layer_1">
</g>
</svg>
