<?xml version="1.0" encoding="iso-8859-1"?>
<!-- Generator: Adobe Illustrator 23.0.1, SVG Export Plug-In . SVG Version: 6.00 Build 0)  -->
<svg version="1.1" xmlns="http://www.w3.org/2000/svg" xmlns:xlink="http://www.w3.org/1999/xlink" x="0px" y="0px"
	 viewBox="0 0 432 407.359" style="enable-background:new 0 0 432 407.359;" xml:space="preserve">
<g id="baseball-batter-silhouette-clip-art-1">
	<path style="stroke:#000000;stroke-width:2;stroke-miterlimit:10;" d="M430.736,371.827c-7.965-4.852-17.998-3.071-24.394-8.613
		c-5.255-4.553-12.341-3.629-19.466-15.61c-8.467-14.239-10.981-32.944-19.217-51.192c-5.655-12.531-8.559-17.279-10.497-26.969
		c-0.335-1.676-5.088,0.43-6.298-0.969c-0.749-0.865,0.721-6.566-0.161-7.429c-1.442-1.409-4.439-0.001-6.298-1.439
		c-16.977-13.132-23.201-55.927-57.846-80.914c-21.736-27.87-13.839-41.418-18.755-76.015c-2.896-20.384-1.291-29.416,4.737-48.232
		c3.876-8.613-5.511-18.637-25.515-27.669c-5.321-2.402-17.569-6.492-21.64-8.29c8.29-11.843-4.683-10.766-18.248-9.313
		c-15.503-20.025-44.835,0.809-45.741,18.962c-0.67,13.427,8.244,21.139,13.39,25.232c5.967-2.028,7.794,5.371,0.861,13.134
		c-5.473,6.129-19.422,13.31-19.422,13.31s-11.859,47.496-16.859,54.418c-13.135,18.184-13.495,27.511-22.502,44.992
		c-5.676,11.017-11.198,10.925-14.426,16.472c-1.4,2.405-0.169,7.549-1.992,12.325c0,0-18.949,30.348-43.974,55.733
		c-5.954,6.04-47.825,54.877-55.395,73.085c-0.936,2.252,6.871,11.345,11.143,8.397c15.451-10.661,47.827-57.431,59.403-75.081
		c11.391-17.369,39.429-55.08,39.429-55.08c5.89-4.919,3.876,0,12.919-7.751c0.232-18.295,18.474-31.494,21.826-52.164
		c9.509-13.62,25.522-26.227,29.521-37.648c-0.065-1.085,15.11,20.001,24.072,35.453c2.721,4.691,3.383,10.309,1.753,15.481
		c-5.9,18.721-1.548,56.701,6.802,75.698c4.758,10.825,8.698,27.699-5.07,32.423c1.052,0.911,2.528,3.168,4.172,4.355
		c-15.382,5.86-22.074,26.262-28.048,40.091c-7.39,17.106-14.073,25.514-27.8,38.335c-9.465,3.976-12.233,13.314-3.651,23.677
		c4.629,5.591,11.52,22.393,26.78,23.247c13.515,0.756,14.426-3.445,10.363-9.036c-3.316-4.562-15.475-14.16-11.319-22.824
		c22.516-46.94,64.35-64.158,70.102-72.132c1.078-1.495,5.602-1.187,6.44-2.775c0,0-1.221-3.001-0.627-5.623
		c0.39-1.719,5.955-3.436,5.491-5.491c-2.261-10.012,9.334-36.573,10.012-47.478c10.804,5.666,12.204,14.304,24.027,18.51
		c6.165,2.193,10.77,10.639,16.187,14.519c6.194,4.436-3.662,10.926,7.73,11.957c0.203,1.426,0.368,2.856,0.493,4.291
		c3.296-0.342,7.231-1.709,8.556,0.434c18.261,29.527,34.16,41.41,46.216,69.402c0.79,12.447-0.987,20.577,20.904,21.754
		C401.768,382.471,434.246,384.1,430.736,371.827z M217.881,48.335c4.2-4.572,0.356-10.14,1.214-16.306
		c7.414,1.4,13.027,9.797,16.041,12.381C235.125,46.834,221.854,47.363,217.881,48.335z"/>
</g>
<g id="Layer_1">
</g>
</svg>
