<?xml version="1.0" encoding="iso-8859-1"?>
<!-- Generator: Adobe Illustrator 23.0.1, SVG Export Plug-In . SVG Version: 6.00 Build 0)  -->
<svg version="1.1" xmlns="http://www.w3.org/2000/svg" xmlns:xlink="http://www.w3.org/1999/xlink" x="0px" y="0px"
	 viewBox="0 0 432.035 412.732" style="enable-background:new 0 0 432.035 412.732;" xml:space="preserve">
<g id="baseball-pitcher-silhouette-clip-art-2">
	<path style="stroke:#000000;stroke-width:2;stroke-miterlimit:10;" d="M428.501,389.731c-5.312-10.571-11.327-14.772-22.927-18.804
		c-7.204-2.504-16.014-2.806-22.541-7.228c-7.342-4.975-13.972-14.745-20.391-21.147c-14.727-14.688-24.638-25.602-44.608-32.941
		c-9.809-3.605-14.716-4.089-19.617-14.232c-3.936-8.144-7.569-16.361-11.574-24.349c-7.732-15.422-16.615-49.054-29.075-61.488
		c2.799-4.908,9.522-6.032,8.545-10.24c-3.125-13.457-2.12-20.471,3.76-33.549c8.089-17.991,16.012-45.23,36.182-53.47
		c18.033-7.367,39.494-3.926,58.42-10.505c11.356-3.948,17.561-5.968,29.124-5.245c10.428,0.653,20.38-2.731,26.139-11.573
		c3.704-5.687,4.763-8.044,1.99-12.796c-1.913-3.278-2.241-10.553-11.283-13.081c-13.777-3.852-15.325,9.732-22.242,14.4
		c-6.63,4.474-21.316-0.494-28.945-0.124c-9.348,0.454-19.92,0.488-29.099,2.311c-4.828,0.959-8.805,3.295-13.888,2.782
		c-4.986-0.503-9.754-4.292-15.068-5.038c-10.442-1.466-16.134,0.141-26.354-3.292c-6.265-2.104-22.931-5.739-24.876-11.728
		c-0.69-2.124,2.559-11.363,2.806-14.131c0.405-4.545,2.023-7.601,1.632-12.091c-0.497-5.704,0.738-16.23-3.013-20.525
		c-3.545-4.059-25.757-11.326-30.756-10.597c-7.895,1.152-14.311,8.086-16.068,13.861c-7.692,3.239-20.277,3.254-18.706,14.159
		c4.332,1.784,9.981,1.972,15.442,1.407c-2.207,8.107-1.651,14.599-1.883,20.128c-4.946,0.792-6.556,4.396-11.703,5.193
		c-5.738,0.889-8.318,2.073-13.283,1.547c-9.458-1.001-18.696,2.653-28.168,3.009c-8.624,0.324-19.984-3.242-28.12-1.028
		c-9.974,2.715-16.285,17.255-22.042,25.354c-11.679,16.429-20.083,40.802-1.957,54.785c15.142,11.681,43.634,18.745,51.409-4.798
		c0.837-2.536,2.328-11.018-0.67-12.92c-2.142-1.359-10.841,4.603-14.662,3.957c-3.869-0.654-7.584-5.182-12.25-6.094
		c-5.561-1.087-11.551,2.863-12.848-3.801c-0.862-4.425,17.038-23.887,21.06-24.417c3.834-0.506,23.18,9.81,28.143,11.894
		c11.049,4.641,14.101,6.796,20.161,18.552c4.732,9.181,6.409,21.829,6.974,31.913c0.693,12.342-2.346,19.895-6.271,31.188
		c-3.265,9.395,0.564,8.951-5.254,17.642c-6.537,9.763-38.629,26.683-51.868,43.942c-4.973,6.483-15.694,20.902-25.999,24.623
		c-3.24,1.17-1.094,9.177-3.435,10.591c-11.915,7.194-7.274,0.325-8.602,13.617C78.1,316.78,65.193,336.28,58.393,356.642
		c-6.909,20.69-21.259,29.145-42.449,29.099c-5.143-0.011-10.174-0.589-14.909,1.403c0.941,18.16,49.915,25.156,64.042,24.553
		c4.996-3.485,2.341-8.536,5.069-12.9c4.073-6.513,4.072-15.161,6.831-22.094c9.29-23.349,22.847-24.856,36.68-49.99
		c4.646-8.442,4.219-21.568,11.779-26.354c6.839-4.33,26.994-8.692,35.253-10.318c19.634-3.864,39.35-13.3,45.109-11.215
		c5.023,1.818,31.745,25.544,41.104,32.652c14.263,10.833,29.92,18.996,44.218,29.801c1.483,1.121,0.787,5.966,2.29,7.061
		c2.103,1.532,6.73-0.352,8.78,1.253c3.624,12.487,2.288-2.779,30.1,13.252c9.772,5.633,19.125,9.416,29.349,13.608
		c19.566,8.02,33.33,19.056,54.983,23.406C429.424,402.428,434.559,401.786,428.501,389.731z"/>
</g>
<g id="Layer_1">
</g>
</svg>
