<?xml version="1.0" encoding="iso-8859-1"?>
<!-- Generator: Adobe Illustrator 23.0.1, SVG Export Plug-In . SVG Version: 6.00 Build 0)  -->
<svg version="1.1" xmlns="http://www.w3.org/2000/svg" xmlns:xlink="http://www.w3.org/1999/xlink" x="0px" y="0px"
	 viewBox="0 0 432.022 417.073" style="enable-background:new 0 0 432.022 417.073;" xml:space="preserve">
<g id="baseball-batter-silhouette-clip-art-2">
	<path style="stroke:#000000;stroke-width:2;stroke-miterlimit:10;" d="M412.428,331.318c-25.949-18.317-40.451-44.267-59.277-57.75
		c-2.872-2.057,4.314-3.714,2.798-7.124c-9.159-20.607,1.475-45.386,3.363-60.049c2.706-21.015-7.842-35.239-7.052-54.943
		c0.488-12.173-1.094-31.231,5.215-47.32c6.267-15.981,8.225-27.87,8.805-34.645c0.343-4.008-0.798-7.961-3.171-11.209
		c-5.786-7.92-17.734-23.118-25.224-24.616c-6.613-8.423,2.194-21.716-13.173-28.797c-20.916-9.637-37.431-0.809-38.42,21.515
		c-13.179,7.644-25.747,10.335-9.719,16.44c12.975,1.272-38.415,4.071-70.471,25.059c-24.805,6.487-29.257,15.9-29.257,15.9
		c-44.648,0-34.854-1.067-69.453-1.067c-31.292,0-72.226-7.016-104.06-4.345c-2.734,0.229-3.49,14.881,0.054,15.674
		c26.713,5.979,71.696,0.3,104.387,0.3c9.369,0,55.174-0.448,63.983,0c14.636,0.745,9.842,4.48,21.886,10.174
		c5.847,2.764,14.128,7.77,26.198,9.137c13.765,1.558,14.881,8.415,34.725,9.56c4.904,14.922,14.984,24.139,14.984,32.31
		c0,10.176,10.514,5.38,5.751,20.861c-2.177,7.074-11.289,23.384-13.865,30.402c-5.31,14.463-15.264,20.989-24.041,43.504
		c-4.051,10.391-9.048,19.55-20.106,21.089c0.634,1.945,3.081,4.451,4.513,5.87c-1.393,2.406-4.415,1.049-4.368,4.404
		c11.838,15.52-1.517,47.945-6.696,64.675c-9.215,29.766-33.871,39.25-42.125,67.309c30.679,14.639,51.491-40.715,64.343-59.16
		c9.289-13.333,18.04-36.485,26.653-50.013c3.887-6.104,3.829-3.4,7.684-8.6c1.869-2.521-3.28-5.67-2.677-8.812
		c0.555-2.89,10.535,2.822,8.077-8.332c14.286-4.636,18.44-16.634,24.032-29.573c1.897,9.53,6.153,16.413,8.341,24.676
		c1.505,5.681,1.013,14.547,4.124,19.694c0.998,1.651,6.571-0.399,7.07,1.676c3.307,13.738,4.834,1.781,15.456,10.34
		c20.823,16.779,58.068,26.04,66.972,50.464c3.665,10.051-0.254,43.504,3.914,44.422c15.167-1.682,26.363-31.258,28.396-56.634
		C423.37,330.744,417.457,334.868,412.428,331.318z M255.968,92.176c-16.282-1.781-18.826,3.307-39.992,1.926
		c4.01-5.822-2.117-5.463-2.749-8.286c6.332-6.862,26.713-10.94,30.536-14.732c8.752,1.122,13.222,4.556,25.789,4.817
		C265.544,82.568,260.197,85.609,255.968,92.176z"/>
</g>
<g id="Layer_1">
</g>
</svg>
