<?xml version="1.0" encoding="iso-8859-1"?>
<!-- Generator: Adobe Illustrator 23.0.1, SVG Export Plug-In . SVG Version: 6.00 Build 0)  -->
<svg version="1.1" xmlns="http://www.w3.org/2000/svg" xmlns:xlink="http://www.w3.org/1999/xlink" x="0px" y="0px"
	 viewBox="0 0 286.738 432" style="enable-background:new 0 0 286.738 432;" xml:space="preserve">
<g id="baseball-pitcher-silhouette-clip-art-3">
	<path style="stroke:#000000;stroke-width:2;stroke-miterlimit:10;" d="M283.662,376.58c-3.938-8.343-16.161-14.274-22.252-21.312
		c-7.48-8.643-14.331-23.678-12.071-31.202c-2.949-9.486-11.022-11.564-17.236-19.895c-6.592-8.838-12.626-17.35-17.421-27.371
		c-9.384-19.611-25.459-49.76-40.556-66.059c-4.626-4.994-8.431-5.16-7.347-11.555c0.438-2.584,4.364-3.504,4.722-6.088
		c0.422-3.043-1.968-4.575-2.481-7.8c-1.25-7.858-2.212-5.852,2.175-13.7c2.841-5.082,6.101-9.836,9.046-14.753
		c7.454-12.445,12.794-20.06,28.031-15.258c13.582,4.281,22.867-1.166,30.561-14.106c5.945-10,12.657-20.331,16.602-31.257
		c2.521-6.982,2.163-9.419,7.854-14.482c6.73-5.987,11.639-15.465,14.817-23.565c-5.708-9.132-5.576-10.129-11.578-14.514
		c-10.542-7.702-16.634-1.305-20.971,6.401c-12.133,7.623,0.099,20.616-0.834,26.537c-1.548,9.824-10.484,12.397-21.519,28.515
		c-6.403-4.174-17.9-12.898-23.61-19.484c-6.833-7.88-15.622-11.699-25.684-13.644c-8.97-1.735-20.871,1.073-18.835-11.489
		c1.302-8.034,8.747-10.28,10.875-18.302c2.653-9.999,4.355-24.196-3.561-31.033c-8.677-7.494-10.905-11.341-21.529-9.842
		c-3.699,0.522-10.246,0.003-13.528,1.887c-3.839,2.204-5.347,9.145-8.923,11.808c-5.226,3.892-24.85,1.677-19.5,13.55
		c6.24,3.209,9.309,3.889,13.578,5.044c0,2.492-0.782,10.942-0.978,15.655c-0.489,11.742,5.771,11.56,4.795,19.421
		c-7.753,0.392-21.201-2.61-28.301,0.346c-8.733,3.637-15.331,16.722-19.764,24.314c-10.89,18.649-21.196,35.969-23.243,57.461
		c-1.439,15.11,0.52,10.638,13.625,14.821c9.052,2.889,19.567,2.627,22.578,11.865c3.558,10.919-0.894,17.483-4.716,26.585
		c-3.715,8.848-12.006,27.205-16.365,36.442c-8.899,18.858-20.017,22.941-27.588,42.365c-1.744,4.474-5.71,8.578-6.452,13.458
		c-0.524,3.447-0.871,9.825,1.778,13.698c2.583,3.777,1.822,27.285-4.915,70.775c-3.7,18.153-10.934,24.438-16.308,32.615
		c-7.502,11.415-10.004,19.869,8.531,17.007c9.605-1.483,18.226-10.298,22.698-18.638c4.26-7.947,0.088-10.195,1.694-18.587
		c1.043-5.452,7.716-14.21,10.782-19.595c7.146-12.55,15.051-25.393,18.563-39.337c0.748-2.971,0.608-7.997,2.075-10.542
		c1.959-3.397,7.654-4.934,9.659-8.045c4.049-6.282,0.288-11.87,2.897-19.329c4.267-12.2,32.116-33.647,42.51-39.59
		c1.025,8.848,46.051,43.795,53.248,50.501c3.566,3.323,8.285,8.072,11.714,11.761c3.699,3.98,3.47,11.599,6.191,14.506
		c6.211,6.636,20.275,8.295,27.792,14.875c9.035,7.909,16.951,16.853,24.24,26.197c6.969,8.933,13.566,14.757,24.951,17.616
		C284.655,394.863,288.518,386.867,283.662,376.58z M72.37,140.344h-0.652c2.13-5.928,4.744-11.165,9.194-15.015
		c1.291-1.117,5.026-4.449,6.459-4.501c2.585-0.092,3.977,2.078,6.999,2.757C89.676,129.372,81.245,146.272,72.37,140.344z"/>
</g>
<g id="Layer_1">
</g>
</svg>
