<?xml version="1.0" encoding="iso-8859-1"?>
<!-- Generator: Adobe Illustrator 23.0.1, SVG Export Plug-In . SVG Version: 6.00 Build 0)  -->
<svg version="1.1" xmlns="http://www.w3.org/2000/svg" xmlns:xlink="http://www.w3.org/1999/xlink" x="0px" y="0px"
	 viewBox="0 0 432 415.189" style="enable-background:new 0 0 432 415.189;" xml:space="preserve">
<g id="running-baseball-player-silhouette-clip-art-4">
	<path style="stroke:#000000;stroke-width:2;stroke-miterlimit:10;" d="M187.339,370.177c7.64-16.098,13.391-13.521,22.466-21.272
		c26.923-22.997,35.2-74.452,62.675-87.498c-31.072-10.158-41.07-18.687-60.219-30.649c-10.553,24.348-48.682,33.27-64.999,48.846
		c-4.47,4.267-13.759,19.034-21.5,21.87c-11.724,4.295-23.135,13.609-34.165,19.547c-11.309,6.089-20.854,15.453-31.54,22.712
		c-11.656,7.918-16.509,13.968-18.312,29.035c-0.77,6.434-1.93,9.935,1.888,16.153c3.377,5.501,12.331,11.112,15.404,16.196
		c4.421,7.316-15.687,5.804-23.316,4.19c-14.122-2.988-15.776-13.584-23.748-25.045c-4.818-6.927-13.966-11.811-10.001-21.655
		c2.547-6.324,11.642-13.339,14.396-14.855c16.529-9.1,30.217-34.254,37.081-43.86c3.495-4.891,8.736-14.492,25.164-22.864
		c10.365-5.282,24.972-37.074,35.144-45.096c3.623-2.858,16.636-18.579,17.463-22.997c5.584-29.804,26.741-60.367,52.936-72.44
		c11.053-7.818,17.449-26.753,23.557-38.52c6.693-12.894,10.924-16.848,17.013-29.348c-5.947-4.45-20.415-9.008-24.198-15.784
		c-7.77,7.227-28.127,31.477-33.233,48.72c-2.717,9.175-6.404,7.475-17.793,17.54c-5.277,4.663-30.942,1.917-35.746-2.587
		c6.602-7.433,20.327-3.4,24.285-12.217c-1.658,0.6-5.388-0.012-7.094,0.862c0.276-7.858,7.817-7.618,12.01-10.061
		c6.133-3.574,4.443-0.995,8.943-6.926c6.693-8.821,8.721-10.694,11.518-20.958c2.572-9.438,5.73-23.284,13.735-39.04
		c3.715-7.313,7.526-5.359,12.733-6.378c15.682-3.071,36.905,1.991,52.394,4.568c19.6,3.261,42.816,3.021,61.162,12.258
		c2.201-1.431,1.617-3.081,3.959-4.848c-2.535-2.228-3.547-5.174-3.547-5.174c10.505-29.752,30.91-35.749,46.07-29.223
		c21.693,9.339,30.014,26.156,14.684,48.834c2.719,4.125,17.376,10.093,11.919,14.117c-10.718,4.482-19.012-3.507-21.284-1.533
		c-4.876,5.065-5.275,7.857-12.734,13.607c0.083,5.371,9.776,12.399,10.827,18.653c2.228,13.274,5.741,12.116,5.202,20.744
		c-0.575,9.206-9.521,26.917-8.206,36.492c9.823-4.887,27.56,2.875,45.898-4.491c6.565-2.637,3.964-14.238,10.402-17.906
		c5.281-3.009,15.373-5.774,24.304-3.931c0.575,6.623-2.791,21.478-4.747,26.328c-3.848,9.543-17.6,8.573-27.105,12.648
		c-14.505,6.219-35.4,9.117-50.389,13.99c-12.546,4.078-18.333,1.447-23.467-1.725c-10.187-4.024,0.076-28.007-7.833-43.219
		c-6.124,2.828-9.686,7.919-14.577,12.53c-5.864,5.528-9.885,6.944-16.64,10.631c-9.012,4.919-22.345,25.041-22.345,25.041
		c2.775,4.626,16.939,13.831,20.982,18.115c5.324,5.643,10.969,11.479,16.401,17.274c10.375,11.069,24.104,30.803,26.282,34.984
		c2.927,5.797,1.508,16.624,2.295,22.913c-2.434,1.459-2.603,0.654-4.318,1.316c-2.426,0.936-2.512,1.836-2.372,3.3
		c0.219,2.291-2.214,2.396-3.845,3.928c-20.952,19.67-87.896,55.123-93.717,88.277c-4.184,22.039,28.437,38.359,7.761,39.861
		c-11.257,0.818-27.572-15.209-33.866-24.434C193.421,380.909,182.993,379.333,187.339,370.177z"/>
</g>
<g id="Layer_1">
</g>
</svg>
