<?xml version="1.0" encoding="iso-8859-1"?>
<!-- Generator: Adobe Illustrator 23.0.1, SVG Export Plug-In . SVG Version: 6.00 Build 0)  -->
<svg version="1.1" xmlns="http://www.w3.org/2000/svg" xmlns:xlink="http://www.w3.org/1999/xlink" x="0px" y="0px"
	 viewBox="0 0 166.813 432" style="enable-background:new 0 0 166.813 432;" xml:space="preserve">
<g id="running-baseball-player-silhouette-clip-art-2">
	<path style="stroke:#000000;stroke-width:2;stroke-miterlimit:10;" d="M165.662,105.45c0.05-6.413-6.172-17.881-20.537-29.59
		c-7.152-5.83-14.842-15.742-19.874-18.218c-14.626-7.197-29.48-7.287-34.449-15.237C89.711,19.534,93.673,0.997,65.628,1
		c-15.4,0.001-19.46,5.936-23.114,19.212c-1.795,6.523-8.685,32.24,7.374,29.289c-0.049,19.997-5.643,10.47-20.697,21.094
		c-8.978,6.336-18.15,11.38-22.193,17.852c-3.048,4.88-1.836,10.578-2.981,18.218c-2.01,13.405-7.687,51.038,4.974,52.481
		c9.621,1.096,12.249-2.819,21.294-14.018c9.506,11.113,0.389,26.025,9.837,39.71c1.868,31.357-9.337,74.309-6.597,82.841
		c4.496,14.002,2.051,31.108,1.96,46.01c-0.066,10.783,8.281,13.581,5.3,21.199c9.937-0.662,58.629,47.114,58.629,68.235
		c0,17.556-17.224,19.377-15.568,26.499c0.488,2.098,14.335,1.282,19.046,0.887c2.171-0.182,7.147-6.68,13.581-11.487
		c5.398-4.033,12.619-6.251,13.51-7.891c5.426-9.996-6.006-19.889-12.681-27.221c-20.316-18.329-15.679-49.244-30.903-70.89
		c-0.056-4.609,4.462-12.087,5.062-17.25c0.637-5.483-0.178-9.103,0.154-14.535c6.763,10.989,14.554,10.675,19.393,23.178
		c1.667,4.308,0.703,25.75,5.537,26.226c11.191,1.101,12.479-3.944,14.099-11.9c1.307-6.418,0.331-12.643,0.289-18.963
		c-0.048-7.256,0.606-7.175,1.606-14.643c1.232-9.202-6.404-12.077-12.256-10.862c-5.28-2.293-7.227-7.235-10.268-15.568
		c-6.31-17.287,11.925-11.593,22.193-33.455c6.674-14.209-9.478-50.108-4.306-56.642c6.294-7.95,2.04-5.664-2.319-20.205
		c-2.582-8.615-0.831-21.294-3.279-42.729c7.173,6.119,11.229,2.649,19.31,7.491c-0.449,11.659,14.112,47.328,1.36,52.627
		c-1.567,0.651-1.909,6.409-3.741,7.054c5.511,8.433,11.161,15.171,17.984,13.482c2.668-0.661,3.87-4.995,7.786-7.438
		C160.284,166.865,166.87,119.993,165.662,105.45z"/>
</g>
<g id="Layer_1">
</g>
</svg>
