<?xml version="1.0" encoding="iso-8859-1"?>
<!-- Generator: Adobe Illustrator 23.0.1, SVG Export Plug-In . SVG Version: 6.00 Build 0)  -->
<svg version="1.1" xmlns="http://www.w3.org/2000/svg" xmlns:xlink="http://www.w3.org/1999/xlink" x="0px" y="0px"
	 viewBox="0 0 360.169 432" style="enable-background:new 0 0 360.169 432;" xml:space="preserve">
<g id="running-baseball-player-silhouette-clip-art-1">
	<path style="stroke:#000000;stroke-width:2;stroke-miterlimit:10;" d="M351.073,384.986c-7.845-0.254-10.49,2.44-18.651,2.459
		c-11.573,0.028-13.357-2.831-14.317-14.153c-0.647-7.634,0.19-14.957,0.183-22.735c-0.016-16.211-0.006-32.501,0.821-48.466
		c0.383-7.404,0.274-12.967,4.06-19.549c-1.307-0.238-2.779-1.497-4.018-1.704c0.977-1.486,1.136-4.432,2.36-5.85
		c1.291-2.644-6.301-2.849-3.39-10.624c1.453-3.879-6.335-8.949-9.022-12.107c-6.078-7.146-14.056-13.445-20.356-20.332
		c-5.857-6.403-12.783-16.077-20.107-24.415c-4.383-7.479,4.124-10.892,9.618-16.19c6.761-6.52,8.614-7.578,12.336-16.843
		c2.313-5.758,6.363-20,11.284-21.851c0,0,5.961,0.233,8.822,1.334c7.321,2.816,17.94,9.95,21.015,7.078
		c6.17-4.579,7.709-17.336,0.399-24.724c-1.536-0.747-11.155-0.819-11.155-0.819c-4.713,0.731-9.946,3.301-14.362-0.821
		c2.032-4.392,1.624-13.462,2.485-18.257c0.385-2.144,0.277-5.188,1.003-7.166c1.223-3.332,2.832-3.706,4.143-6.606
		c4.523-10.006-2.82-24.184-1.599-35.141c4.327-0.368,7.109,0.041,11.134-2.315c4.091-2.395,4.303-4.335,4.924-8.207
		c1.317-8.213,2.958-8.213,2.616-16.73c4.209-0.276,16.834-5.094,13.122-10.425c-2.245-3.224-13.96-4.168-13.96-5.536
		c0-6.011-4.047-15.376-8.872-19.124c-4.485-3.485-12.096-4.376-17.527-4.129c-11.218,0.51-24.925,4.535-29.955,15.046
		c-1.8,3.761-3.283,27.63-3.283,27.63s2.052,0.684,4.725,2.468c-1.106,10.283-7.895,11.591-16.534,16.271
		c-8.98,4.864-15.207,10.071-22.116,17.417c-7.678,8.163-10.063,13.559-13.632,23.575c-2.996,8.407-8.776,15.97-11.894,24.843
		c-2.848,8.101-4.777,16.485-7.757,24.422c-3.457,9.208-11.394,13.927-18.918,20.354c-14.201,12.128-20.764,30.379-21.52,48.603
		c-0.456,10.994-3.397,17.727-9.188,27.064c-3.301,5.322-9.507,6.946-9.687,13.211c-0.103,3.594,0.072,10.256-8.618,8.009
		c-0.76,0.983-2.211,5.479-2.872,6.454c-0.227-0.559-1.326-2.732-1.641-3.445c-3.283,0.137-3.817,2.849-5.322,3.396
		c-7.842,0.32-10.925,0.791-18.658,2.102c-8.372,1.42-15.749,5.074-24.46,5.398c-8.118,0.303-16.088-0.845-23.598-3.943
		c-8.942-3.688-7.141-13.105-16.554-14.75c-10.04-1.755-15.532,8.76-20.335,15.776c-5.582,8.154-7.782,11.351-14.213,18.674
		c-6.684,7.61-8.059,20.975-6.381,24.454c3.907,8.105,18.139-2.988,22.851-6.158c18.956-12.751,29.656-18.042,53.368-10.728
		c5.147,1.588,29.886,7.207,34.221,9.48c6.057,3.176,0.576,4.91,8.227,5.969c5.282,0.731,10.517-2.953,14.09,2.645
		c0.666-1.096,2.591-1.947,3.306-3.441c10.092,5.044,12.553,4.864,22.182-2.548c7.722-5.944,16.411-11.725,22.934-18.814
		c7.155-7.776,11.688-14.647,20.562-20.536c7.828-5.195,15.518-10.604,22.322-16.989c6.842,6.849,14.736,13.807,22.177,20.295
		c3.634,3.168,8.304,4.948,12.106,7.503c5.626,3.782,4.185,4.744,7.307,9.131c1.116,1.568,3.635,0.958,5.044,3.205
		c0.943,1.505,1.276,4.544,1.805,6.354c1.462,5.007,1.543,8.97,2.282,14.02c1.185,8.099,7.769,21.111,10.666,28.859
		c5.604,14.988,9.341,25.469,12.31,41.149c2.742,14.48-9.919,38.926,13.173,37.475c9.678-0.608,15.544-9.025,22.757-14.129
		c7.445-5.266,11.29-7.472,18.254-13.955C359.278,397.566,363.574,385.39,351.073,384.986z"/>
</g>
<g id="Layer_1">
</g>
</svg>
